IKResults-ET4
version=1
nRows=12
nColumns=24
inDegrees=yes

Units are S.I. units (second, meters, Newtons, ...)
If the header above contains a line with 'inDegrees', this indicates whether rotational values are in degrees (yes) or radians (no).

endheader
time	pelvis_tilt	pelvis_list	pelvis_rotation	pelvis_tx	pelvis_ty	pelvis_tz	hip_flexion_r	hip_adduction_r	hip_rotation_r	knee_angle_r	ankle_angle_r	subtalar_angle_r	mtp_angle_r	hip_flexion_l	hip_adduction_l	hip_rotation_l	knee_angle_l	ankle_angle_l	subtalar_angle_l	mtp_angle_l	lumbar_extension	lumbar_bending	lumbar_rotation
      3.46000000	      2.63681417	     -5.62449335	   -182.76684775	      2.89336268	      1.00591241	     -0.17679740	     24.24768591	     -8.72494775	      0.46568907	    -58.15916924	     10.26961944	      1.85844330	      0.00000000	      5.35303156	     11.57836097	      1.46904708	     -9.06507334	     12.52924247	      7.32105328	      0.00000000	    -12.69614526	     -7.39915456	     -1.41052151
      3.47000000	      2.65127805	     -5.50142897	   -182.13290956	      2.88132481	      1.00576796	     -0.17564491	     25.34391502	     -8.58210156	      0.37072227	    -56.55360515	     11.01250418	      2.88342156	      0.00000000	      4.44673597	     11.58921197	      2.32999502	     -8.98808749	     13.00335763	      7.41036341	      0.00000000	    -12.80131306	     -7.30902588	     -2.56629804
      3.48000000	      2.67982303	     -5.36958666	   -181.51641983	      2.86947116	      1.00544169	     -0.17462151	     26.41044378	     -8.39188210	      0.33443373	    -54.80921855	     11.65644858	      3.20938413	      0.00000000	      3.60112635	     11.54611934	      2.98597064	     -8.92567310	     13.61998194	      7.52084854	      0.00000000	    -12.95278416	     -7.15265365	     -3.11910716
      3.49000000	      2.59150587	     -5.18670922	   -180.94384741	      2.85720201	      1.00532045	     -0.17390044	     27.24468213	     -8.13320208	      0.26801724	    -52.76305414	     12.10540591	      3.79201387	      0.00000000	      2.56689536	     11.40532737	      3.60085259	     -8.79989784	     14.14131222	      7.79194771	      0.00000000	    -13.13591136	     -7.04133243	     -3.93091820
      3.50000000	      2.52955689	     -5.00333146	   -180.41496440	      2.84499475	      1.00495082	     -0.17328514	     28.04732082	     -7.82205461	      0.32590825	    -50.64502963	     12.21217178	      3.89501302	      0.00000000	      1.56277522	     11.23235957	      4.13555304	     -8.62099427	     14.63527176	      7.92363574	      0.00000000	    -13.32317674	     -6.88734426	     -4.16687612
      3.51000000	      2.45358423	     -4.82313744	   -179.93194062	      2.83266475	      1.00455919	     -0.17286969	     28.74883162	     -7.49127934	      0.36986045	    -48.32520215	     12.52491631	      4.14216818	      0.00000000	      0.60785335	     11.02433240	      4.51550175	     -8.58147897	     15.11924041	      8.66599879	      0.00000000	    -13.60562690	     -6.79483109	     -4.84829194
      3.52000000	      2.41575356	     -4.57608300	   -179.52924602	      2.82034480	      1.00416532	     -0.17271058	     29.32034680	     -7.03961014	      0.60815893	    -45.64394643	     12.66279726	      4.26598828	      0.00000000	     -0.31837045	     10.73859014	      4.91652276	     -8.51873239	     15.66109456	      8.70831277	      0.00000000	    -13.78408137	     -6.61693415	     -5.04553693
      3.53000000	      2.30302788	     -4.50768577	   -179.21747815	      2.80754826	      1.00340537	     -0.17243528	     29.98654046	     -6.76140587	      0.79853321	    -43.31626596	     12.82369990	      4.74499602	      0.00000000	     -1.39936373	     10.65053205	      5.17914731	     -8.30680765	     16.05274848	      9.04535029	      0.00000000	    -14.05124504	     -6.66346105	     -5.60748134
      3.54000000	      2.20886250	     -4.35090160	   -178.86867166	      2.79472684	      1.00266261	     -0.17237071	     30.47775674	     -6.36282766	      1.14168843	    -40.78156360	     12.62476782	      4.94366276	      0.00000000	     -2.38692027	     10.41597578	      5.47754381	     -8.27755321	     16.65764444	      9.14367724	      0.00000000	    -14.28314338	     -6.63240543	     -5.75093184
      3.55000000	      2.33203813	     -4.16301878	   -178.36969105	      2.78263034	      1.00150268	     -0.17210338	     31.09597876	     -6.04648237	      1.25757085	    -37.94654064	     12.08965143	      5.11631752	      0.00000000	     -2.98538657	     10.14726233	      5.64048661	     -8.44564512	     17.19085138	      9.51254200	      0.00000000	    -14.47802088	     -6.52090732	     -5.96936793
      3.56000000	      2.34236404	     -3.97597477	   -178.00005941	      2.76979735	      1.00039826	     -0.17219110	     31.47394849	     -5.68115239	      1.48329165	    -34.99675232	     11.46963692	      5.21982105	      0.00000000	     -3.81206230	      9.86371308	      5.86057318	     -8.48553185	     17.76146925	     10.04389238	      0.00000000	    -14.66425778	     -6.45810768	     -6.21073093
      3.57000000	      2.40631400	     -3.80583282	   -177.54248679	      2.75716378	      0.99901710	     -0.17220380	     31.91417762	     -5.37904230	      1.59172812	    -32.14244794	     10.79018065	      5.14974746	      0.00000000	     -4.59452329	      9.57740037	      5.84930137	     -8.45340622	     18.26215813	     10.73865425	      0.00000000	    -14.84069704	     -6.38430869	     -6.50260856
